<svg xmlns="http://www.w3.org/2000/svg" xmlns:xlink="http://www.w3.org/1999/xlink" version="1.1" id="Layer_1" x="0px" y="0px" viewBox="0 0 589 691" style="enable-background:new 0 0 589 691;" xml:space="preserve">
<style type="text/css">
	.st0{fill-rule:evenodd;clip-rule:evenodd;fill:#204ECF;}
</style>
<path class="st0" d="M479.9,312.3L245.5,77.5L191,131.7l79.7,79.8L95.8,385.9L331,621.5l53.8-53.6l-80.4-80.6L479.9,312.3z   M255.7,427.7c-1.6,0.5-3.2,0.5-4.8,0s-2.9-1.2-5.7-4.1l-31.7-31.8c-2.8-2.8-3.6-4.2-4-5.8c-0.5-1.6-0.5-3.2,0-4.8  c0.5-1.6,1.2-2.9,4.1-5.7l99.9-99.7c2.8-2.8,4.2-3.6,5.8-4c1.6-0.5,3.2-0.5,4.8,0c1.6,0.5,2.9,1.2,5.7,4.1l31.7,31.8  c2.8,2.8,3.6,4.2,4,5.8c0.5,1.6,0.5,3.2,0,4.8c-0.5,1.6-1.2,2.9-4.1,5.7l-99.9,99.7C258.6,426.5,257.2,427.3,255.7,427.7z"/>
<path class="st0" d="M425.6,103.3c0-7,2.4-13,7.4-18s11-7.5,17.9-7.5c7,0,13,2.5,18,7.5s7.5,11,7.5,18c0,7.1-2.5,13-7.5,17.9  c-5,5-11,7.4-18,7.4s-13-2.4-17.9-7.4C428,116.3,425.6,110.4,425.6,103.3z M429.8,103.3c0,5.9,2,11,6.1,15.1s9.1,6.2,15.1,6.2  c5.9,0,10.9-2.1,15-6.2c4.1-4.2,6.2-9.2,6.2-15.1s-2.1-11-6.2-15.1c-4.1-4.2-9.1-6.3-15-6.3s-10.9,2.1-15,6.3  C431.9,92.3,429.8,97.3,429.8,103.3z M457,117.2l-6.8-12.1h-4.6v12.1h-4.2V89.4h11.3c5.6,0,8.9,3.3,8.9,7.9c0,3.9-2.9,6.8-6.8,7.6  l6.9,12.3C461.7,117.2,457,117.2,457,117.2z M445.6,93.1v8.4h6.5c3.6,0,5.4-1.4,5.4-4.2c0-2.9-1.8-4.3-5.4-4.3L445.6,93.1z"/>
</svg>